<svg id="榛璁" xmlns="http://www.w3.org/2000/svg" viewBox="0 0 827.28 826.69"><defs><style>.cls-1{fill:#2381ff;}.cls-2{fill:#043afe;}.cls-3{fill:#00baff;}</style></defs><path class="cls-1" d="M1125.6,397.45v620h-620V810.79H650.25a62,62,0,0,0,124,0H918.93V666.12a62,62,0,0,1,0-124V397.45Z" transform="translate(-298.32 -190.77)"/><path class="cls-2" d="M918.93,666.12V810.79H774.26a62,62,0,0,1-124,0H505.58V666.12a62,62,0,0,1,0-124V397.45H650.25a62,62,0,0,1,124,0H918.93V542.12a62,62,0,0,0,0,124Z" transform="translate(-298.32 -190.77)"/><path class="cls-3" d="M918.34,190.77l.59,206.68H774.26a62,62,0,0,0-124,0H505.58V542.12a62,62,0,0,0,0,124V810.79H298.32v-620Z" transform="translate(-298.32 -190.77)"/></svg>